<svg width="170" height="32" viewBox="0 0 170 32" fill="none" xmlns="http://www.w3.org/2000/svg">
<path fill-rule="evenodd" clip-rule="evenodd" d="M14 30C21.732 30 28 23.732 28 16C28 8.26801 21.732 2 14 2C6.26801 2 0 8.26801 0 16C0 23.732 6.26801 30 14 30ZM14.6473 9.84052H16.0642V24.414H18.8979V7.61401H14.6473C10.3967 7.61401 8.17022 9.84052 8.17022 13.0791C8.17022 15.7104 9.38467 17.1273 11.6112 18.7465L7.7654 24.414H11.0039L15.0521 18.1393L13.6353 17.1273C11.8136 15.9128 11.0039 14.9008 11.0039 12.8767C11.0039 11.055 12.2184 9.84052 14.6473 9.84052Z" fill="black"/>
<path d="M35.5 5.15V26H39.13V7.97H45.61V26H49.24V5.15H35.5ZM55.5285 10.91H52.2285V30.35H55.7985V24.23C56.6985 25.58 58.0185 26.3 59.5485 26.3C63.0285 26.3 65.4285 23.51 65.4285 18.44C65.4285 13.4 63.0885 10.61 59.7285 10.61C58.0485 10.61 56.6685 11.39 55.7085 12.86L55.5285 10.91ZM58.6485 23.48C56.7585 23.48 55.7985 21.95 55.7985 18.47C55.7985 14.96 56.8185 13.43 58.8285 13.43C60.7785 13.43 61.7385 14.96 61.7385 18.44C61.7385 21.95 60.7185 23.48 58.6485 23.48ZM78.948 15.71C78.948 12.05 77.088 10.67 73.308 10.67C70.938 10.67 69.078 11.42 67.998 12.05V15.02C68.958 14.3 71.058 13.52 72.888 13.52C74.598 13.52 75.378 14.12 75.378 15.74V16.58H74.808C69.348 16.58 66.918 18.38 66.918 21.44C66.918 24.5 68.778 26.21 71.538 26.21C73.638 26.21 74.538 25.52 75.228 24.8H75.378C75.408 25.19 75.528 25.7 75.648 26H79.128C79.008 24.77 78.948 23.54 78.948 22.31V15.71ZM75.378 22.4C74.928 23.06 74.088 23.6 72.828 23.6C71.328 23.6 70.578 22.7 70.578 21.35C70.578 19.58 71.808 18.95 74.868 18.95H75.378V22.4ZM90.6684 26H94.7184L88.9884 17.87L94.0284 10.91H90.4284L85.3884 17.87V10.91H81.8184V26H85.3884V18.59L90.6684 26ZM106.541 13.73V10.91H94.5707V13.73H98.7707V26H102.341V13.73H106.541ZM108.654 10.91V26H111.744L117.264 16.67V26H120.744V10.91H117.654L112.134 20.24V10.91H108.654ZM132.592 26H136.642L130.912 17.87L135.952 10.91H132.352L127.312 17.87V10.91H123.742V26H127.312V18.59L132.592 26ZM139.783 30.65C143.113 30.65 144.343 28.28 145.363 25.19L150.073 10.91H146.623L143.293 22.25L139.963 10.91H136.213L141.403 26.66C141.013 27.38 140.443 27.83 139.453 27.83C138.793 27.83 138.223 27.62 137.833 27.23V30.14C137.833 30.14 138.373 30.65 139.783 30.65ZM164.298 26H167.778L167.718 10.91H162.828L159.558 20.96L156.618 10.91H151.428V26H154.458V14.72L157.728 26H160.638L164.298 14.72V26Z" fill="black"/>
</svg>
